<?xml version="1.0" encoding="utf-8"?>
<!-- Generator: Adobe Illustrator 22.0.1, SVG Export Plug-In . SVG Version: 6.00 Build 0)  -->
<svg version="1.1" xmlns="http://www.w3.org/2000/svg" xmlns:xlink="http://www.w3.org/1999/xlink" x="0px" y="0px"
	 viewBox="0 0 512 512" style="enable-background:new 0 0 512 512;" xml:space="preserve">
<style type="text/css">
	.st0{fill:#4B71B4;}
	.st1{fill:#80B4E8;}
	.st2{fill:#594144;}
	.st3{fill:#B8E876;}
	.st4{fill:#E09122;}
	.st5{fill:#FBF355;}
	.st6{fill:#EEC82F;}
	.st7{fill:#CEA628;}
	.st8{fill:#9BC9EF;}
	.st9{fill:#9DD055;}
	.st10{fill:#5686C5;}
	.st11{fill:#3B5880;}
	.st12{fill:#C2E5FB;}
	.st13{fill:#446697;}
	.st14{fill:#D1F1A0;}
	.st15{fill:#ABD170;}
	.st16{fill:#9DBD6A;}
	.st17{fill:#649D53;}
	.st18{fill:#72B35D;}
	.st19{fill:#ABD68D;}
	.st20{fill:#7FB358;}
	.st21{fill:#920C50;}
	.st22{fill:#C60053;}
	.st23{fill:#530730;}
	.st24{fill:#600332;}
	.st25{fill:#D5AC2A;}
	.st26{fill:#EFD776;}
	.st27{fill:#A7C76D;}
	.st28{fill:#A43749;}
	.st29{fill:#DC4355;}
	.st30{fill:#E18696;}
	.st31{fill:#77A255;}
	.st32{fill:#628547;}
	.st33{fill:#6E994D;}
	.st34{fill:none;stroke:#54743C;stroke-width:8;stroke-linecap:round;stroke-miterlimit:10;}
	.st35{fill:#9BCF75;}
	.st36{fill:#CA8F80;}
	.st37{fill:#E6B8AB;}
	.st38{fill:#E2A18B;}
	.st39{fill:#8E3F2B;}
	.st40{fill:#D89988;}
	.st41{fill:#CFCFCF;}
	.st42{fill:#A64B2D;}
	.st43{fill:#FFFFFF;}
	.st44{fill:#CA801F;}
	.st45{fill:#719C50;}
	.st46{fill:#85B7E5;}
	.st47{fill:#4F7BA9;}
	.st48{fill:#674C50;}
	.st49{fill:#BAD7ED;}
	.st50{fill:#63494D;}
	.st51{fill:#503D3F;}
	.st52{fill:#638547;}
	.st53{fill:#56713E;}
	.st54{fill:#BB5135;}
	.st55{fill:#93C4EC;}
	.st56{fill:#CA8121;}
	.st57{fill:#FDFCFC;}
	.st58{fill:#A83A4F;}
	.st59{fill:#BD5E44;}
	.st60{fill:#688C4A;}
	.st61{fill:#7DA55A;}
	.st62{fill:#90BA51;}
	.st63{fill:none;}
	.st64{fill:#ABC287;}
	.st65{fill:#BDD993;}
	.st66{fill:none;stroke:#534046;stroke-width:15;stroke-linecap:round;stroke-linejoin:round;stroke-miterlimit:10;}
	.st67{fill:#413133;}
	.st68{fill:#34292B;}
	.st69{fill:#644B50;}
	.st70{fill:#CDACB7;}
	.st71{fill:#A83A4D;}
	.st72{fill:#413335;}
	.st73{fill:#DC6579;}
	.st74{fill:#4C393C;}
	.st75{fill:#527FAE;}
	.st76{fill:#92C2EA;}
	.st77{fill:#5B8C4A;}
	.st78{fill:#729C51;}
	.st79{fill:#AADB5E;}
	.st80{fill:#D66C53;}
	.st81{fill:#A65340;}
	.st82{fill:#B8594A;}
	.st83{fill:#79A754;}
	.st84{fill:#4E3B3E;}
	.st85{fill:#5E4649;}
	.st86{fill:#604A50;}
	.st87{fill:#685258;}
	.st88{fill:#765E66;}
	.st89{fill:#FCF69A;}
	.st90{fill:#D3CC84;}
	.st91{fill:#E6A572;}
	.st92{fill:#74A151;}
	.st93{fill:#6F994F;}
	.st94{fill:#CC6D7D;}
	.st95{fill:#AD6576;}
	.st96{fill:#95422D;}
	.st97{fill:#BE6850;}
	.st98{fill:#3B2F32;}
	.st99{fill:none;stroke:#46383B;stroke-width:15;stroke-linecap:round;stroke-miterlimit:10;}
	.st100{fill:none;stroke:#3B2F32;stroke-width:15;stroke-linecap:round;stroke-miterlimit:10;}
	.st101{fill:#D6CF77;}
	.st102{fill:#F5EF82;}
	.st103{fill:#4A383B;}
	.st104{fill:#CACACA;}
	.st105{fill:#48373A;}
	.st106{fill:#7AA8D2;}
	.st107{fill:#6E9150;}
	.st108{fill:#587441;}
	.st109{fill:#D76E51;}
	.st110{fill:#CCC475;}
	.st111{fill:#DDD57E;}
	.st112{fill:#F8F19C;}
	.st113{fill:#FBF58A;}
	.st114{fill:#C67F20;}
	.st115{fill:#AB6B1C;}
	.st116{fill:#C98020;}
	.st117{fill:#D99A41;}
	.st118{fill:#DBA35B;}
	.st119{fill:#9B5F1B;}
	.st120{fill:#97CF6D;}
	.st121{fill:#5380B1;}
	.st122{fill:#96D16A;}
	.st123{fill:#92BD50;}
	.st124{fill:#7EB058;}
	.st125{fill:#709A50;}
	.st126{fill:#5A8A4A;}
	.st127{fill:#D9D9D9;}
	.st128{fill:#75A3CD;}
	.st129{fill:#6E974F;}
	.st130{fill:#CA6D7D;}
	.st131{fill:#AB6576;}
	.st132{fill:#93422D;}
	.st133{fill:#A44B2D;}
	.st134{fill:#BC6850;}
	.st135{fill:#DFB52B;}
	.st136{fill:#4C3A3C;}
	.st137{fill:#473538;}
	.st138{fill:#382B2E;}
	.st139{fill:none;stroke:#FFFFFF;stroke-width:8;stroke-linecap:round;stroke-miterlimit:10;}
	.st140{fill:#90C0E8;}
	.st141{fill:none;stroke:#E09122;stroke-width:12;stroke-linecap:round;stroke-miterlimit:10;}
	.st142{fill:#DCAE2B;}
	.st143{fill:#F0D05A;}
	.st144{fill:#729E51;}
	.st145{fill:#E4BA36;}
	.st146{fill:#F8F283;}
	.st147{fill:#E4B6A9;}
	.st148{fill:#D78E30;}
	.st149{fill:#598A49;}
	.st150{fill:#B65339;}
	.st151{fill:#BA751F;}
	.st152{fill:#466A9F;}
	.st153{fill:#8BB34D;}
	.st154{fill:#9BCE54;}
	.st155{fill:#7F9F49;}
	.st156{fill:#D37F6D;}
	.st157{fill:#BB5E44;}
	.st158{fill:#93BB55;}
	.st159{fill:#B3E665;}
	.st160{fill:none;stroke:#4C393C;stroke-width:8;stroke-miterlimit:10;}
	.st161{fill:#97432D;}
	.st162{fill:#DAB12A;}
	.st163{fill:#5E914C;}
	.st164{fill:#5381B3;}
	.st165{fill:#6A8F4C;}
	.st166{fill:#628047;}
	.st167{fill:#E29D37;}
	.st168{fill:#6E555B;}
	.st169{fill:#91CA67;}
	.st170{fill:#476BA1;}
	.st171{fill:#6699D9;}
	.st172{fill:#503C3E;}
	.st173{fill:#413235;}
	.st174{fill:#CC916A;}
	.st175{fill:#BA8363;}
	.st176{fill:#D09571;}
	.st177{fill:#C98F68;}
	.st178{fill:#AA3B4D;}
	.st179{fill:#DA6075;}
	.st180{fill:#92452D;}
	.st181{fill:#A24B2D;}
	.st182{fill:#B76252;}
	.st183{fill:#87BD60;}
	.st184{fill:#78A7D2;}
	.st185{fill:#F9F38F;}
	.st186{fill:#E0D650;}
	.st187{fill:#AFE086;}
	.st188{fill:#9FD476;}
	.st189{fill:#9DD176;}
	.st190{fill:#8FC468;}
	.st191{fill:#7EAE58;}
	.st192{fill:#6F9850;}
	.st193{fill:#59884A;}
	.st194{fill:#638347;}
	.st195{fill:#B95135;}
	.st196{fill:#E5AB62;}
	.st197{fill:#733228;}
	.st198{fill:#803728;}
	.st199{fill:#6D974D;}
	.st200{fill:#99CD75;}
	.st201{fill:#93412C;}
	.st202{fill:#93C2EA;}
	.st203{fill:#CD926B;}
	.st204{fill:#E6AF8A;}
	.st205{fill:#E5DB4E;}
	.st206{fill:#FBF375;}
	.st207{fill:#779E54;}
	.st208{fill:#D3966D;}
	.st209{fill:#DA4355;}
	.st210{fill:#A83B4D;}
	.st211{fill:none;stroke:#594144;stroke-width:8;stroke-linecap:round;stroke-miterlimit:10;}
	.st212{fill:#E5A855;}
	.st213{fill:#EAC291;}
	.st214{fill:#96C252;}
	.st215{fill:#695055;}
	.st216{fill:#DC9C42;}
	.st217{fill:#8E5C1B;}
	.st218{fill:#F4EB6A;}
	.st219{fill:#CBC049;}
	.st220{fill:none;stroke:#B8E876;stroke-width:15;stroke-linecap:round;stroke-miterlimit:10;}
	.st221{fill:#A36A1C;}
	.st222{fill:#ECC94A;}
	.st223{fill:#91BEDA;}
	.st224{fill:#3D2F32;}
	.st225{fill:#A6394C;}
	.st226{fill:#33292B;}
	.st227{fill:#4F3D42;}
	.st228{fill:#638147;}
	.st229{fill:#CD8321;}
	.st230{fill:#D3CA4A;}
	.st231{fill:#E2A550;}
	.st232{fill:#B75135;}
	.st233{fill:#D4CD77;}
	.st234{fill:#F3EC80;}
	.st235{fill:#46383B;}
	.st236{fill:#82AA61;}
	.st237{fill:#8EBF69;}
	.st238{fill:#3C2E31;}
	.st239{fill:#C49F27;}
	.st240{fill:#D2BF7C;}
	.st241{fill:#F6E18D;}
	.st242{fill:#D6D6D6;}
	.st243{fill:#B5D7F2;}
	.st244{fill:#F1D467;}
	.st245{fill:#739FBD;}
	.st246{fill:#D0946C;}
	.st247{fill:#BE8767;}
	.st248{fill:#D0A829;}
	.st249{fill:#F6DF86;}
	.st250{fill:#EABA8D;}
	.st251{fill:#F0D1B8;}
	.st252{fill:#A5D0F1;}
	.st253{fill:#E3A13F;}
	.st254{fill:#F0FAFF;}
	.st255{fill:#B4D3E3;}
	.st256{fill:#80A5C3;}
	.st257{fill:#87AFD5;}
	.st258{fill:#B1D1E7;}
	.st259{fill:#AED66F;}
	.st260{fill:#91AA61;}
	.st261{fill:#A8384B;}
	.st262{fill:#CD8120;}
	.st263{fill:#E6AD56;}
	.st264{fill:none;stroke:#E6AD56;stroke-width:8;stroke-linecap:round;stroke-miterlimit:10;}
	.st265{fill:#9EBD68;}
	.st266{fill:#AAD16E;}
	.st267{fill:#86656B;}
	.st268{fill:#6D954D;}
	.st269{fill:#98CB75;}
	.st270{fill:#75A251;}
	.st271{fill:#91BD4F;}
	.st272{fill:none;stroke:#B8E078;stroke-width:8;stroke-linecap:round;stroke-miterlimit:10;}
	.st273{fill:none;stroke:#B8E078;stroke-width:8;stroke-linecap:round;stroke-linejoin:round;stroke-miterlimit:10;}
	.st274{fill:#8FBA4E;}
	.st275{fill:#B3E860;}
	.st276{fill:#E7A748;}
	.st277{fill:none;stroke:#B6E676;stroke-width:15;stroke-linecap:round;stroke-miterlimit:10;}
	.st278{fill:#639B53;}
	.st279{fill:#476B9F;}
	.st280{fill:#82B1DE;}
	.st281{fill:#A6533F;}
	.st282{fill:#C28A69;}
	.st283{fill:#64494E;}
	.st284{fill:#77565C;}
	.st285{fill:#4F3C40;}
	.st286{fill:#ECCCB1;}
	.st287{fill:#BF6F5C;}
	.st288{fill:none;stroke:#D4F1A7;stroke-width:10;stroke-linecap:round;stroke-miterlimit:10;}
	.st289{fill:none;stroke:#B8E876;stroke-width:10;stroke-linecap:round;stroke-miterlimit:10;}
	.st290{fill:#47688F;}
	.st291{fill:#3F5B78;}
	.st292{fill:#354E6C;}
	.st293{fill:#DAB12B;}
	.st294{fill:#C8A028;}
	.st295{fill:#F0D15C;}
	.st296{fill:#F8F28B;}
	.st297{fill:#F7F18D;}
	.st298{fill:#DED450;}
	.st299{fill:#F9F155;}
	.st300{fill:#A2CFF4;}
	.st301{fill:none;stroke:#594144;stroke-width:10;stroke-linecap:round;stroke-miterlimit:10;}
	.st302{fill:#F5F0AB;}
	.st303{fill:#496DA1;}
	.st304{fill:#5A85C7;}
	.st305{fill:#D7D7D7;}
	.st306{fill:#ADD3E6;}
	.st307{fill:#98B8C3;}
	.st308{fill:#CDCECF;}
	.st309{fill:#BF4F69;}
	.st310{fill:#A83448;}
	.st311{fill:#A4DAF7;}
	.st312{fill:#81A861;}
	.st313{fill:#82A549;}
	.st314{fill:#B6E676;}
	.st315{fill:#8CBD69;}
	.st316{fill:#ECC62F;}
	.st317{fill:#F4EA80;}
	.st318{fill:#D6AD2B;}
	.st319{fill:#6F9151;}
	.st320{fill:#46699C;}
	.st321{fill:#4A373A;}
	.st322{fill:#89B04C;}
	.st323{fill:#99CC53;}
	.st324{fill:#B1E465;}
	.st325{fill:#E19E3B;}
	.st326{fill:#C05970;}
	.st327{fill:#D95F74;}
	.st328{fill:#74A8DE;}
	.st329{fill:#C47C1E;}
	.st330{fill:#719A51;}
	.st331{fill:#A8D95E;}
	.st332{fill:#D46C53;}
	.st333{fill:#A45340;}
	.st334{fill:#B6594A;}
	.st335{fill:#79A554;}
	.st336{fill:#B6DAF7;}
	.st337{fill:#739F51;}
	.st338{fill:#DDB32B;}
	.st339{fill:#DE8F22;}
	.st340{fill:none;stroke:#46383B;stroke-width:8;stroke-linecap:round;stroke-miterlimit:10;}
	.st341{fill:none;stroke:#3B2F32;stroke-width:8;stroke-linecap:round;stroke-miterlimit:10;}
	.st342{fill:#C8C8C8;}
	.st343{fill:#7F9D49;}
	.st344{fill:#BA5E44;}
	.st345{fill:#92B955;}
	.st346{fill:#D17F6D;}
	.st347{fill:#5D8F4C;}
	.st348{fill:#B75334;}
	.st349{fill:#CA6D57;}
	.st350{fill:#A4574D;}
	.st351{fill:#7FB1E6;}
	.st352{fill:#77A3CD;}
	.st353{fill:#90BA4F;}
	.st354{fill:#5C8F4B;}
	.st355{fill:#ACDE5D;}
	.st356{fill:#6FAC5A;}
	.st357{fill:none;stroke:#9DD055;stroke-width:10;stroke-linecap:round;stroke-miterlimit:10;}
	.st358{fill:#AD5643;}
	.st359{fill:#B96052;}
	.st360{fill:#CB8D84;}
	.st361{fill:#CC6C56;}
	.st362{fill:#DE9A8E;}
	.st363{fill:#D37B6A;}
	.st364{fill:#A87758;}
	.st365{fill:#372A2C;}
	.st366{fill:#B8815C;}
	.st367{fill:#433335;}
	.st368{fill:#2C2325;}
	.st369{fill:#95402B;}
	.st370{fill:#A85441;}
	.st371{fill:#D2C74B;}
	.st372{fill:#B25945;}
	.st373{fill:none;stroke:#594144;stroke-width:15;stroke-linecap:round;stroke-miterlimit:10;}
	.st374{fill:none;stroke:#594144;stroke-width:12;stroke-linecap:round;stroke-miterlimit:10;}
	.st375{fill:#8F473B;}
	.st376{fill:#453538;}
	.st377{fill:#517DAB;}
	.st378{fill:#75A050;}
	.st379{fill:#A5384D;}
	.st380{fill:#CC6075;}
	.st381{fill:#F26B7F;}
	.st382{fill:#C67189;}
	.st383{fill:#B26980;}
	.st384{fill:#D87990;}
	.st385{fill:#F2869B;}
	.st386{fill:#EF8499;}
	.st387{fill:#649CD7;}
	.st388{fill:#639CDB;}
	.st389{fill:#C8ED8D;}
	.st390{fill:#A9DB83;}
	.st391{fill:#9BCF76;}
	.st392{fill:#7EAC58;}
	.st393{fill:#8CC463;}
	.st394{fill:#7FAC5B;}
	.st395{fill:#769C55;}
	.st396{fill:#6A894D;}
	.st397{fill:#769B56;}
	.st398{fill:#9BCC75;}
	.st399{fill:#AF5641;}
	.st400{fill:#F4D576;}
	.st401{fill:#76A055;}
	.st402{fill:#628347;}
	.st403{fill:#4F7B9F;}
	.st404{fill:#466D86;}
	.st405{fill:#4D789C;}
</style>
<g id="BULINE">
	<circle id="XMLID_224_" class="st1" cx="256" cy="256" r="256"/>
</g>
<g id="Icons">
	<g id="XMLID_441_">
		<path id="XMLID_816_" class="st55" d="M238.6,85.5c0-17.9-14.5-32.3-32.3-32.3c-5,0-9.7,1.1-13.9,3.2
			c-6.9-8.6-17.6-14.1-29.5-14.1c-16.9,0-31.2,11.1-36,26.3c-1.9-0.5-3.9-0.7-5.9-0.7c-13.8,0-25,11.2-25,25c0,13.8,11.2,25,25,25
			h85.9v0C224.4,117.5,238.6,103.2,238.6,85.5z"/>
		<path id="XMLID_814_" class="st55" d="M456.1,135.8c0-17.9-14.5-32.3-32.3-32.3c-5,0-9.7,1.1-13.9,3.2
			c-6.9-8.6-17.6-14.1-29.5-14.1c-16.9,0-31.2,11.1-36,26.3c-1.9-0.5-3.9-0.7-5.9-0.7c-13.8,0-25,11.2-25,25c0,13.8,11.2,25,25,25
			h85.9v0C441.9,167.8,456.1,153.5,456.1,135.8z"/>
		<path id="XMLID_1205_" class="st9" d="M247.6,368.4c0,1,0,1.9,0,2.9c-0.1,3.9-0.3,7.7-0.6,11.5c-0.6,7-1.7,14-3.2,20.7
			c-0.4,1.9-0.9,3.7-1.4,5.6c-3,11.6-7.3,22.7-12.7,33.2c-4.3,8.4-9.4,16.3-15.1,23.8c-10,13.2-22.1,24.7-35.6,34.2
			c-3.1-1-6.1-2-9.1-3c-15.3-5.4-29.9-12.3-43.6-20.4c-8.3-1.5-15.9-11.8-24.2-13.9c-9-2.3-22.3,4.4-30.3-0.7
			c-4.6-2.9-6.3-9.2-8.2-15.5c-0.2,0.4-0.5,0.8-0.8,1.1c-6,8.4-20,8.6-20,8.6s-4.2-13.3,1.8-21.7c1.7-2.3,3.6-4.3,5.6-5.9
			c-6.4-3.6-13.7-6.5-16-12.2c-2.1-5.2,0.3-11.5,2.5-17.7c-1.3,0.2-2.7,0.3-4.1,0.3c-10.3,0.1-18.8-11-18.8-11s7.2-9.8,16.5-11.2
			c-1.7-3.2-3.4-6.5-5-9.7c-7.6-1.7-12.9-5.2-16.1-8c-2.2-1.9-2.2-5.3,0-7.2l6.9-6.1C5.8,318,0,287.7,0,256c0-8.1,0.4-16.1,1.1-24.1
			c8.5-5.3,17.5-9.9,27-13.6c10.7-4.2,22-7.2,33.6-9.1c4.2-0.6,8.4-1.1,12.6-1.5c3.4-0.2,6.8-0.4,10.2-0.4c0.7,0,1.4,0,2.1,0
			c12.3,0,24.3,1.4,35.8,4c2.7,0.6,5.4,1.3,8.1,2c3,0.8,5.9,1.8,8.8,2.8h0c5.6,1.9,11.1,4.2,16.4,6.7c3.7,1.7,7.3,3.6,10.8,5.7
			c6.6,3.8,12.9,8,18.9,12.7c6.7,5.2,13,11,18.8,17.2c1.2,1.3,2.4,2.6,3.6,4c0.3,0.4,0.6,0.7,0.9,1.1c0.4,0.5,0.8,1,1.2,1.5
			c4.4,5.3,8.6,10.9,12.3,16.8c0.5,0.7,0.9,1.5,1.4,2.2c2.2,3.6,4.3,7.4,6.3,11.2c0,0.1,0.1,0.1,0.1,0.2c1.6,3,3,6.1,4.4,9.3
			c0.2,0.4,0.3,0.7,0.5,1.1c3.9,9.2,7,18.9,9.1,29c1.7,8.1,2.8,16.3,3.3,24.8C247.5,362.3,247.6,365.3,247.6,368.4z"/>
		<path id="XMLID_1034_" class="st9" d="M472.9,392C427.6,464.1,347.4,512,256,512c-26.8,0-52.7-4.1-77-11.8c-3.1-1-6.1-2-9.1-3
			c-5.5-12.1-9.5-25-11.9-38.5c-1.1-6.1-1.8-12.3-2.1-18.6c-0.2-3.1-0.3-6.2-0.3-9.3c0-1.9,0-3.8,0.1-5.8v0c0.1-1.8,0.2-3.6,0.3-5.4
			c0.8-11.2,2.7-22.1,5.6-32.5c0,0,0,0,0,0c4.3-15.3,10.8-29.7,19.2-42.8c0.8-1.2,1.6-2.5,2.4-3.7c2.2-3.3,4.6-6.5,7.1-9.7
			c4-5.1,8.4-10,13-14.6c0.5-0.5,1-0.9,1.4-1.4c0.1-0.1,0.2-0.2,0.4-0.4l0,0c7.6-7.3,15.9-13.8,24.7-19.5c0.1,0,0.2-0.1,0.2-0.1
			c1-0.6,1.9-1.2,2.9-1.8c0,0,0,0,0,0c3.3-2,6.7-3.9,10.2-5.7h0c2.4-1.2,4.8-2.4,7.3-3.5s5-2.2,7.5-3.1c0,0,0.1,0,0.1,0
			c3.3-1.3,6.6-2.4,9.9-3.5c3-1,6.1-1.8,9.2-2.6c1.7-0.4,3.5-0.9,5.3-1.2c8.4-1.8,17.1-3,26-3.4c0.1,0,0.2,0,0.3,0
			c2.5-0.1,5-0.2,7.6-0.2c4.1,0,8.2,0.2,12.3,0.5c2.5,0.2,4.9,0.4,7.3,0.7c1.6,0.2,3.2,0.4,4.8,0.6c5.5,0.9,10.9,2,16.3,3.4
			c1.4,0.3,2.7,0.7,4,1.1c4.1,1.2,8.2,2.5,12.1,4c11.6,4.4,22.6,10.1,32.8,16.9c3.2,2.2,6.4,4.5,9.5,6.9c1.7,1.3,3.4,2.7,5.1,4.1
			c2.4,2.1,4.8,4.2,7.1,6.4c3.6,3.5,7.1,7.1,10.4,10.9C454.7,344.2,466.7,367,472.9,392z"/>
		<g id="XMLID_803_">
			<path id="XMLID_811_" class="st45" d="M183.9,179c6.1,7.5,20.8,9.8,24.1,18.3c3.5,8.8-5.7,20.6-5.1,29.8
				c0.6,9.4,11.1,19.9,8.7,29c-2.3,9-16.5,13.2-21.7,21.2c-0.1,0.2-0.3,0.4-0.4,0.7c-4.4,7.9-2.4,21.9-9.6,27.9
				c-7.5,6.1-21.4,1-30,4.4c-8.8,3.5-15.6,16.7-24.9,17.2c-9.4,0.6-17.7-11.7-26.8-14.1c-9-2.3-22.3,4.4-30.3-0.7
				c-7.7-4.9-7.3-19.7-13.4-27.2c-6.1-7.5-20.8-9.8-24.1-18.3c-3.5-8.8,5.7-20.6,5.1-29.8c-0.6-9.4-11.1-19.9-8.7-29
				c2.3-9,16.5-13.2,21.7-21.2c4.9-7.7,2.6-22.4,10-28.6c7.2-6,20.7-1.3,29.2-4.2c0.2-0.1,0.5-0.2,0.7-0.3
				c8.8-3.5,15.6-16.7,24.9-17.2c9.4-0.6,17.7,11.7,26.8,14.1c9,2.3,22.3-4.4,30.3,0.7C178.2,156.8,177.7,171.6,183.9,179z"/>
			<path id="XMLID_810_" class="st20" d="M183.9,179c6.1,7.5,20.8,9.8,24.1,18.3c3.5,8.8-5.7,20.6-5.1,29.8
				c0.6,9.4,11.1,19.9,8.7,29c-2.3,9-16.5,13.2-21.7,21.2c-0.1,0.2-0.3,0.4-0.4,0.7c-0.2,0.1-0.5,0.2-0.7,0.3
				c-8.8,3.5-15.6,16.7-24.9,17.2c-9.4,0.6-17.7-11.7-26.8-14.1c-9-2.3-22.3,4.4-30.3-0.7c-7.7-4.9-7.3-19.7-13.4-27.2
				c-6.1-7.5-20.8-9.8-24.1-18.3c-3.5-8.8,5.7-20.6,5.1-29.9c-0.6-9.4-11.1-19.9-8.7-29c2.3-9,16.5-13.2,21.7-21.2
				c0.1-0.2,0.3-0.4,0.4-0.7c0.2-0.1,0.5-0.2,0.7-0.3c8.8-3.5,15.6-16.7,24.9-17.2c9.4-0.6,17.7,11.7,26.8,14.1
				c9,2.3,22.3-4.4,30.3,0.7C178.2,156.8,177.7,171.6,183.9,179z"/>
			<path id="XMLID_809_" class="st3" d="M122.7,142c0.7,10.3-3.8,19-9.9,19.4c-6.2,0.4-11.7-7.6-12.4-17.9
				c-0.7-10.3,9.9-19.4,9.9-19.4S122,131.7,122.7,142z"/>
			<path id="XMLID_808_" class="st45" d="M145.3,213c-8.5,5.8-18.2,6.4-21.7,1.3c-3.5-5.1,0.6-14,9.1-19.8s21.7-1.3,21.7-1.3
				S153.8,207.2,145.3,213z"/>
			<path id="XMLID_807_" class="st52" d="M70,189.4c10.2-1.4,19.2,2.5,20,8.6s-6.8,12.2-17,13.5s-20-8.6-20-8.6S59.8,190.8,70,189.4
				z"/>
			<path id="XMLID_806_" class="st52" d="M91.6,250.6c6.2-8.3,15.2-12,20.1-8.3c5,3.7,4,13.4-2.2,21.7c-6.2,8.3-20.1,8.3-20.1,8.3
				S85.4,258.8,91.6,250.6z"/>
			<path id="XMLID_805_" class="st52" d="M28.6,227.6c10.3-0.1,18.7,4.9,18.8,11s-8.3,11.3-18.6,11.3s-18.8-11-18.8-11
				S18.3,227.7,28.6,227.6z"/>
			<path id="XMLID_804_" class="st52" d="M40.9,285.5c6-8.4,15-12.2,20-8.6s4.2,13.3-1.8,21.7s-20,8.6-20,8.6S34.9,293.9,40.9,285.5
				z"/>
		</g>
		<g id="XMLID_488_">
			<path id="XMLID_1012_" class="st45" d="M215.5,405.5c-0.3,1.2-0.8,2.4-1.6,3.4c-1.6,2.5-4.2,4.6-6.9,6.6
				c-4.8,3.5-10.4,6.7-13.2,11.1c-0.1,0.2-0.3,0.4-0.4,0.7c-4.2,7.6-2.5,20.8-8.8,27.1c-0.3,0.3-0.5,0.5-0.8,0.8
				c-6.3,5.2-17.3,2.3-25.7,3.4c-1.5,0.2-2.9,0.5-4.2,1c-8.8,3.5-15.6,16.7-24.9,17.2c-0.9,0-1.8,0-2.7-0.2
				c-8.3-1.5-15.9-11.8-24.2-13.9c-9-2.3-22.3,4.4-30.3-0.7c-4.6-2.9-6.3-9.2-8.2-15.5c-1.3-4.3-2.7-8.7-5.2-11.7
				c-2-2.5-5-4.4-8.1-6.1c-6.4-3.6-13.7-6.5-16-12.2c-2.1-5.2,0.3-11.5,2.5-17.7c0.8-2.4,1.7-4.9,2.2-7.2c0-0.1,0-0.1,0-0.2
				c0.2-1.2,0.4-2.3,0.4-3.4c0-0.5,0-1,0-1.4c-0.2-3.1-1.5-6.4-3-9.7c-1.4-2.9-3-5.9-4.2-8.9c-1.5-3.6-2.3-7.1-1.5-10.5
				c2.3-9,16.5-13.2,21.7-21.2c4.9-7.7,2.6-22.4,10-28.6c0.3-0.3,0.6-0.5,1-0.7c6.3-4.1,16.3-1.8,24.1-2.6c1.4-0.1,2.8-0.4,4.1-0.8
				c0.2-0.1,0.5-0.2,0.7-0.2c4.3-1.7,8.1-5.7,12-9.4c1.8-1.8,3.7-3.5,5.6-4.9c2.2-1.6,4.5-2.7,6.9-2.9c0.1,0,0.2,0,0.3,0
				c2.8-0.2,5.4,0.8,8.1,2.3c0.3,0.2,0.6,0.4,0.9,0.6c1.2,0.7,2.3,1.5,3.5,2.4c1.3,0.9,2.5,1.9,3.8,2.8c3.5,2.6,6.9,5.1,10.5,6
				c1.8,0.5,3.7,0.6,5.7,0.5c0.5,0,1-0.1,1.5-0.1c1.1-0.1,2.2-0.2,3.4-0.4c7-1,14.5-2.7,19.7,0.7c1.3,0.8,2.3,1.9,3.2,3.1
				c0.4,0.5,0.7,1.1,1.1,1.7c0.1,0.2,0.2,0.4,0.3,0.7c1.5,3,2.6,6.7,3.6,10.3c0.3,1.1,0.7,2.2,1,3.2c0.7,1.9,1.4,3.8,2.3,5.5
				c0.5,1,1.1,1.9,1.8,2.7c0.8,0.9,1.7,1.8,2.7,2.6c1.4,1.1,3,2.2,4.7,3.1c6.6,3.8,14.4,6.7,16.7,12.6c0.8,2,0.9,4.2,0.7,6.5
				c-0.4,4-2.1,8.3-3.6,12.5c-1.3,3.8-2.4,7.5-2.2,10.9c0,0.7,0.1,1.5,0.3,2.2c0.1,0.5,0.2,1,0.4,1.5
				C209.8,388.6,217.5,397.6,215.5,405.5z"/>
			<path id="XMLID_501_" class="st20" d="M187.7,328.4c6.1,7.5,20.8,9.8,24.1,18.3c3.5,8.8-5.7,20.6-5.1,29.8
				c0.6,9.4,11.1,19.9,8.7,29c-2.3,9-16.5,13.2-21.7,21.2c-0.1,0.2-0.3,0.4-0.4,0.7c-0.2,0.1-0.5,0.2-0.7,0.3
				c-8.8,3.5-15.6,16.7-24.9,17.2c-9.4,0.6-17.7-11.7-26.8-14.1c-9-2.3-22.3,4.4-30.3-0.7c-7.7-4.9-7.3-19.7-13.4-27.2
				c-6.1-7.5-20.8-9.8-24.1-18.3c-3.5-8.8,5.7-20.6,5.1-29.9c-0.6-9.4-11.1-19.9-8.7-29c2.3-9,16.5-13.2,21.7-21.2
				c0.1-0.2,0.3-0.4,0.4-0.7c0.2-0.1,0.5-0.2,0.7-0.3c8.8-3.5,15.6-16.7,24.9-17.2c9.4-0.6,17.7,11.7,26.8,14.1
				c9,2.3,22.3-4.4,30.3,0.7C182.1,306.1,181.6,320.9,187.7,328.4z"/>
			<path id="XMLID_495_" class="st3" d="M126.5,291.3c0.7,10.3-3.8,19-9.9,19.4c-6.2,0.4-11.7-7.6-12.4-17.9s9.9-19.4,9.9-19.4
				S125.9,281,126.5,291.3z"/>
			<path id="XMLID_494_" class="st45" d="M149.1,362.3c-8.5,5.8-18.2,6.4-21.7,1.3s0.6-14,9.1-19.8c8.5-5.8,21.7-1.3,21.7-1.3
				S157.6,356.5,149.1,362.3z"/>
			<path id="XMLID_493_" class="st52" d="M73.8,338.7c10.2-1.4,19.2,2.5,20,8.6c0.8,6.1-6.8,12.2-17,13.5s-20-8.6-20-8.6
				S63.6,340.1,73.8,338.7z"/>
			<path id="XMLID_491_" class="st52" d="M95.4,399.9c6.2-8.3,15.2-12,20.1-8.3c5,3.7,4,13.4-2.2,21.7s-20.1,8.3-20.1,8.3
				S89.3,408.1,95.4,399.9z"/>
			<path id="XMLID_901_" class="st52" d="M51.2,388c0,3.2-2.2,6.2-5.9,8.2c-0.8,0.5-1.8,0.9-2.7,1.3c-1.8,0.7-3.7,1.2-5.8,1.5
				c-1.3,0.2-2.7,0.3-4.1,0.3c-10.3,0.1-18.8-11-18.8-11s7.2-9.8,16.5-11.2c0.7-0.1,1.4-0.2,2.1-0.2c1.3,0,2.6,0.1,3.9,0.2
				c3,0.4,5.8,1.2,8.1,2.3C48.6,381.5,51.2,384.5,51.2,388z"/>
			<path id="XMLID_894_" class="st52" d="M63.7,446.7c-0.2,0.4-0.5,0.8-0.8,1.1c-6,8.4-20,8.6-20,8.6s-4.2-13.3,1.8-21.7
				c1.7-2.3,3.6-4.3,5.6-5.9c5.1-4.1,10.8-5.3,14.4-2.7c0,0,0.1,0,0.1,0.1c0.8,0.6,1.4,1.2,1.9,2.1C69.2,432.6,68.1,440,63.7,446.7z
				"/>
		</g>
		<g id="XMLID_463_">
			<path id="XMLID_487_" class="st53" d="M361.7,224.7c1.2,3.1,1.9,6.5,1.9,10.1c0,15.2-12.3,27.4-27.4,27.4c-1.5,0-2.9-0.1-4.4-0.4
				c-1.4,8-6.2,14.8-12.9,18.9c-4.1,2.5-8.9,3.9-14.1,3.9c-15.2,0-27.5-12.3-27.5-27.5c0-3.7,0.8-7.2,2.1-10.4
				c-13.9-5.8-23.7-19.6-23.7-35.7c0-19.5,14.5-35.6,33.3-38.2c2.4-12.8,13.5-22.5,27-22.5c5.2,0,10,1.4,14.1,3.9
				c6.8,4.1,11.6,11,12.9,19.1c2.3-0.6,4.6-0.9,7-0.9c15.2,0,27.5,12.3,27.5,27.4C377.5,210.8,371.1,220.3,361.7,224.7z"/>
			<path id="XMLID_484_" class="st52" d="M361.7,224.7c1.2,3.1,1.9,6.5,1.9,10.1c0,15.2-12.3,27.4-27.4,27.4c-1.5,0-2.9-0.1-4.4-0.4
				c-1.4,8-6.2,14.8-12.9,18.9c-8-4.8-13.3-13.5-13.3-23.6c0-3.7,0.7-7.2,2.1-10.4c-13.9-5.8-23.7-19.6-23.7-35.7
				c0-19.5,14.5-35.6,33.3-38.2c1.4-7.9,6.2-14.6,12.9-18.5c6.8,4.1,11.6,11,12.9,19.1c2.3-0.6,4.6-0.9,7-0.9
				c15.2,0,27.5,12.3,27.5,27.4C377.5,210.8,371.1,220.3,361.7,224.7z"/>
			<path id="XMLID_483_" class="st45" d="M333,345.5c2.5,6.3,3.9,13.1,3.9,20.3c0,30.5-24.7,55.2-55.2,55.2c-3,0-5.9-0.3-8.8-0.7
				c-2.8,16.1-12.5,29.9-26.1,38c-8.3,5-18,7.8-28.3,7.8c-30.5,0-55.3-24.8-55.3-55.3c0-7.4,1.5-14.5,4.2-21
				c-28.1-11.7-47.8-39.5-47.8-71.8c0-39.3,29.2-71.7,67-76.9c4.7-25.7,27.2-45.2,54.3-45.2c10.4,0,20.1,2.8,28.4,7.9
				c13.6,8.2,23.4,22.1,26.1,38.4c4.6-1.2,9.3-1.9,14.2-1.9c30.5,0,55.3,24.7,55.3,55.2C364.8,317.6,351.8,336.6,333,345.5z"/>
			<path id="XMLID_481_" class="st20" d="M333,345.5c2.5,6.3,3.9,13.1,3.9,20.3c0,30.5-24.7,55.2-55.2,55.2c-3,0-5.9-0.3-8.8-0.7
				c-2.8,16.1-12.5,29.9-26.1,38c-16.1-9.7-26.9-27.3-26.9-47.4c0-7.4,1.5-14.5,4.2-21c-28.1-11.7-47.8-39.5-47.8-71.8
				c0-39.3,29.2-71.7,67.1-76.9c2.9-15.9,12.6-29.4,26-37.3c13.6,8.2,23.4,22.1,26.1,38.4c4.6-1.2,9.3-1.9,14.2-1.9
				c30.5,0,55.3,24.7,55.3,55.2C364.8,317.6,351.8,336.6,333,345.5z"/>
			<path id="XMLID_479_" class="st53" d="M443.2,294.6c-2.5,3.4-5.6,6.3-9.4,8.7c-16.1,10-37.2,5.1-47.1-11c-1-1.6-1.8-3.2-2.5-4.9
				c-9.4,3.8-19.8,3.2-28.5-1.3c-5.3-2.7-10-6.9-13.4-12.3c-10-16.1-5.1-37.2,11-47.2c3.9-2.4,8.2-4,12.4-4.7
				c-3-18.6,5.1-38.1,22.1-48.7c20.7-12.9,47.3-8.1,62.4,10.1c15.1-5.9,32.7-0.5,41.6,13.8c3.4,5.5,5.1,11.5,5.1,17.5
				c0.2,9.8-4,19.6-11.7,26.3c2.1,2,4,4.3,5.6,6.8c10,16.1,5.1,37.2-11,47.2C468.3,302.2,454,301.6,443.2,294.6z"/>
			<path id="XMLID_478_" class="st52" d="M443.2,294.6c-2.5,3.4-5.6,6.3-9.4,8.7c-16.1,10-37.2,5.1-47.1-11c-1-1.6-1.8-3.2-2.5-4.9
				c-9.4,3.8-19.8,3.2-28.5-1.3c-0.2-11.6,5.6-23.1,16.2-29.7c3.9-2.4,8.1-4,12.4-4.7c-3-18.6,5.1-38.1,22.1-48.7
				c20.7-12.9,47.3-8.1,62.4,10.1c9.3-3.7,19.6-3,28.1,1.4c0.2,9.8-4,19.6-11.7,26.3c2.1,2,4,4.3,5.6,6.8c10,16.1,5.1,37.2-11,47.2
				C468.3,302.2,454,301.6,443.2,294.6z"/>
			<g id="XMLID_469_">
				<path id="XMLID_475_" class="st54" d="M336.2,256.2c0-7.5-6.1-13.6-13.6-13.6c-7.5,0-13.6,6.1-13.6,13.6v58l27.2-26V256.2z"/>
				<g id="XMLID_470_">
					<path id="XMLID_474_" class="st54" d="M295.6,377.3c-14,13.4-31.5,22.4-50.6,25.9l-132.3,24.4c2.9,2,6.5,3.1,10.2,3.1
						c1.1,0,2.2-0.1,3.3-0.3l147.7-27.3c19.1-3.5,36.6-12.5,50.6-25.9l47.3-45.3h-28.8L295.6,377.3z"/>
					<path id="XMLID_473_" class="st54" d="M479.5,270c-5.6-4.9-14.2-4.4-19.2,1.3l-5.3,6.1c0.9,4-0.1,8.4-3,11.8l-12.8,14.6
						c-15.7,17.9-38.3,28.2-62.1,28.2h28.8c23.8,0,46.4-10.3,62.1-28.2l12.8-14.6C485.7,283.5,485.1,274.9,479.5,270z"/>
					<path id="XMLID_472_" class="st42" d="M455,277.4l-7.5,8.5c-10.5,12-25.7,18.9-41.6,18.9h-5.8l2.1-2.1c2-1.9,3.4-4.1,4.3-6.5
						c2.5-6.4,1.3-13.9-3.8-19.1c-6.9-7.2-18.4-7.5-25.6-0.5l-2,1.9l-38.9,37.3v-27.6l-27.2,26v27.6l-9.7,9.3
						c-8.9,8.5-20,14.2-32.1,16.4l-147.7,27.3c-9.8,1.8-16.3,11.3-14.5,21.1c0.9,5,3.8,9.1,7.6,11.7L245,403.2
						c19.1-3.5,36.6-12.5,50.6-25.9l47.3-45.3h28.8h5.3c23.8,0,46.4-10.3,62.1-28.2l12.8-14.6C454.9,285.8,455.8,281.4,455,277.4z"
						/>
				</g>
			</g>
			<path id="XMLID_468_" class="st20" d="M240.3,175.3c7.3,17.2,4.8,34.7-5.5,39c-10.3,4.4-24.6-6.1-31.8-23.2s5.5-39,5.5-39
				S233.1,158.1,240.3,175.3z"/>
			<path id="XMLID_467_" class="st53" d="M415.3,149.7c7.3,17.2,4.8,34.7-5.5,39s-24.6-6.1-31.8-23.2s5.5-39,5.5-39
				S408.1,132.5,415.3,149.7z"/>
			<path id="XMLID_466_" class="st52" d="M457.5,341.4c-12.7-13.7-16.3-30.9-8.1-38.6c8.2-7.6,25.2-2.7,37.8,11s8.1,38.6,8.1,38.6
				S470.2,355.1,457.5,341.4z"/>
			<path id="XMLID_464_" class="st52" d="M366.8,361.9c-7-17.3-4.2-34.7,6.2-38.9c10.4-4.2,24.4,6.5,31.4,23.8
				c7,17.3-6.2,38.9-6.2,38.9S373.8,379.2,366.8,361.9z"/>
		</g>
		<path id="XMLID_462_" class="st56" d="M323,349.6c-7.7-7.8-16.1-11.5-24.9-11.1c-8.6,0.5-15.4,5-19.5,8.6l-33.8-27.4
			c-1.9-1.6-2.5-4.3-1.4-6.6l14.4-27.6c1.5-2.9,0.4-6.6-2.5-8.1c-2.9-1.5-6.6-0.4-8.1,2.5l-14.4,27.6c-3.8,7.3-1.9,16.3,4.4,21.4
			l38,30.8c0,0,0,0,0,0c0,0,0,0,0,0c0,0,0.1,0,0.1,0.1c0.2,0.2,0.4,0.3,0.6,0.4c0.1,0,0.2,0.1,0.2,0.1c0.2,0.1,0.5,0.2,0.7,0.3
			c0,0,0.1,0,0.1,0c0.3,0.1,0.6,0.2,0.8,0.2c0.1,0,0.2,0,0.2,0c0.2,0,0.5,0,0.7,0.1c0,0,0.1,0,0.1,0c0,0,0.1,0,0.1,0
			c0.1,0,0.2,0,0.3,0c0.1,0,0.2,0,0.4,0c0.1,0,0.2,0,0.3-0.1c0.1,0,0.3-0.1,0.4-0.1c0,0,0.1,0,0.1,0c2-0.5,10.1-2,14.2,1
			c0.7,0.5,2.8,2.1,3,7.4c0.1,3.2,2.8,5.8,6,5.8c0.1,0,0.1,0,0.2,0c3.3-0.1,5.9-2.9,5.8-6.2c-0.3-9.2-4.5-14.1-7.9-16.6
			c-1-0.7-2-1.3-3.1-1.8c5.2-0.3,10.4,2.3,15.5,7.5c2.3,2.4,6.1,2.4,8.5,0.1C325.3,355.8,325.3,352,323,349.6z"/>
		<path id="XMLID_461_" class="st6" d="M341.3,103.3c-6.1,7.8-14.4,13.8-24,17.1c-6.7,2.3-11.2,8.4-11.4,15.2c0,1.5,0.1,2.9,0.5,4.4
			c0,0.1,0,0.2,0.1,0.3c2.7,10,4.4,20.3,4.4,30.7v16.9c0,17.3-3.4,33.8-9.5,48.8c-19.3,47.1-65.5,80.3-119.5,80.3H106
			c2.3-19.1,5.4-37,9.2-53.7c3.6-16,8-30.8,13.1-44.4c18.8-49.5,47.9-82.4,90.9-93.1c4.3-1.1,8.3-2.8,11.9-5
			c13.2-8.1,21.3-23.2,19.7-39.3c-0.1-0.7-0.1-1.2-0.2-1.5c0-0.1,0-0.1,0-0.2c0-0.1,0-0.1,0-0.1c-0.4-2.5-0.6-5-0.6-7.5
			c0-29.4,25-53.1,54.9-50.8c6,0.5,11.6,1.9,16.9,4.3c0.8,0.4,1.6,0.8,2.4,1.2h0c15,7.7,25.8,22.8,27.5,40.4
			C353,80.8,348.9,93.5,341.3,103.3z"/>
		<path id="XMLID_460_" class="st5" d="M341.3,103.3c-6.1,7.8-14.4,13.8-24,17.1c-6.7,2.3-11.2,8.4-11.4,15.2c0,1.5,0.1,2.9,0.5,4.4
			c0,0.1,0,0.2,0.1,0.3c2.7,10,4.4,20.3,4.4,30.7v16.9c0,17.3-3.4,33.8-9.5,48.8c-19.3,47.1-65.5,80.3-119.5,80.3h-34.3
			c2.3-19.1,5.4-37,9.2-53.7c3.6-16,8-30.8,13.1-44.4c18.8-49.5,47.9-82.4,90.9-93.1c4.3-1.1,8.3-2.8,11.9-5
			c13.2-8.1,21.3-23.2,19.7-39.3c-0.1-0.7-0.1-1.2-0.2-1.5c0-0.1,0-0.1,0-0.2c0-0.1,0-0.1,0-0.1c-0.4-2.5-0.6-5-0.6-7.5
			c0-20.7,12.4-38.6,30.1-46.5c0.8,0.4,1.6,0.8,2.4,1.2h0c15,7.7,25.8,22.8,27.5,40.4C353,80.8,348.9,93.5,341.3,103.3z"/>
		<path id="XMLID_459_" class="st4" d="M274.8,370.1c-7.7-7.8-16.1-11.5-24.9-11.1c-8.6,0.5-15.4,5-19.5,8.6l-33.8-27.4
			c-1.9-1.6-2.5-4.3-1.4-6.6l14.4-27.6c1.5-2.9,0.4-6.6-2.5-8.1c-2.9-1.5-6.6-0.4-8.1,2.5l-14.4,27.6c-3.8,7.3-1.9,16.3,4.4,21.4
			l38,30.8c0,0,0,0,0,0c0,0,0,0,0,0c0,0,0.1,0,0.1,0.1c0.2,0.2,0.4,0.3,0.6,0.4c0.1,0,0.2,0.1,0.2,0.1c0.2,0.1,0.5,0.2,0.7,0.3
			c0,0,0.1,0,0.1,0c0.3,0.1,0.6,0.2,0.8,0.2c0.1,0,0.2,0,0.2,0c0.2,0,0.5,0,0.7,0.1c0,0,0.1,0,0.1,0c0,0,0.1,0,0.1,0
			c0.1,0,0.2,0,0.3,0c0.1,0,0.2,0,0.4,0c0.1,0,0.2,0,0.3-0.1c0.1,0,0.3-0.1,0.4-0.1c0,0,0.1,0,0.1,0c2-0.5,10.1-2,14.2,1
			c0.7,0.5,2.8,2.1,3,7.4c0.1,3.2,2.8,5.8,6,5.8c0.1,0,0.1,0,0.2,0c3.3-0.1,5.9-2.9,5.8-6.2c-0.3-9.2-4.5-14.1-7.9-16.6
			c-1-0.7-2-1.3-3.1-1.8c5.2-0.3,10.4,2.3,15.5,7.5c2.3,2.4,6.1,2.4,8.5,0.1C277.1,376.3,277.2,372.5,274.8,370.1z"/>
		<path id="XMLID_458_" class="st2" d="M368.5,92.1l-34.6,5.4c0,0-3.5-9.3,2.5-17.2c2.8-3.6,7.6-7,15.8-8.9l15.8,13.7l2.1,1.8
			C372,88.6,371,91.8,368.5,92.1z"/>
		<path id="XMLID_455_" class="st50" d="M367.9,85.1l-23.2,3.6c-4.8,0.7-9.1-3.4-8.4-8.2c0-0.1,0-0.1,0-0.2c2.8-3.6,7.6-7,15.8-8.9
			L367.9,85.1z"/>
		<path id="XMLID_489_" class="st2" d="M322.7,72.4c0,6.3-4,11.6-9.6,13.6c-1.5,0.5-3.2,0.8-4.9,0.8c-8,0-14.5-6.5-14.5-14.5
			c0-8,6.5-14.5,14.5-14.5c1.7,0,3.4,0.3,4.9,0.8C318.7,60.7,322.7,66.1,322.7,72.4z"/>
		<path id="XMLID_490_" class="st50" d="M322.7,72.4c0,6.3-4,11.6-9.6,13.6c-5.6-2-9.6-7.3-9.6-13.6c0-6.3,4-11.6,9.6-13.6
			C318.7,60.7,322.7,66.1,322.7,72.4z"/>
		<path id="XMLID_497_" class="st57" d="M269.6,225.9c-20.2-0.9-37.4,14-39.8,33.7c-15-0.1-29,8.6-35.3,22.7
			c-17.9-4.6-36.5,4.3-44.3,20.8c-19.2-4.2-38.7,6.7-44.9,25.8l-9.4,29.1v0c18.6,6,38.4-2.9,46.6-20.1c17.8,3.9,35.9-5.3,43.3-21.8
			c18.6,4.8,37.9-5,45.2-22.7c20-0.6,36.5-16.5,37.3-36.8L269.6,225.9L269.6,225.9z"/>
		<path id="XMLID_498_" class="st29" d="M117.9,252.1l-78.3,136c-1.5,2.5-0.4,5.8,2.3,6.9c7.7,3.2,24.2,6.6,44.4-9.5
			c3-2.3,5.4-5.3,7-8.7l41.1-83.9L117.9,252.1z"/>
		<path id="XMLID_939_" class="st58" d="M129.8,292.3l-3.3,3.3l-3.5,3.5l-1.5,1.5l-9,9l-6.5,6.5l-0.8,0.8l-21.9,22l-7.5,7.5
			L64.5,358l-0.6,0.6c-2.7,2.7-5.9,4.7-9.4,6c-0.6,0.2-1.2,0.4-1.8,0.6c-7.9,2.6-14.7,3.4-20.5,3.1c-2.4-0.1-4.7-0.5-6.8-0.9
			c-7.6-1.7-12.9-5.2-16.1-8c-2.2-1.9-2.2-5.3,0-7.2l6.9-6.1l46.2-40.6l38.3-33.6l4.4-3.9l4-3.5l3.3-2.9l3.2-2.9c0,0,0,0,0,0
			l0.7-0.6l2.9-2.5l8-7l1.8,31.3l0,0.9l0,0.5l0.6,10.5L129.8,292.3z"/>
		<path id="XMLID_500_" class="st42" d="M151.8,317c0,0-8.7-1.1-17.7-7.1c-10.5-7-21.5-20.5-19-46.7c1.1-12,5.1-26.6,13.1-44.4
			c16.6-43.8,41.3-74.6,76.6-88.5c4.6-1.8,9.4-3.4,14.4-4.6c4.3-1.1,8.3-2.8,11.9-5C231.1,120.8,363.3,238.3,151.8,317z"/>
		<path id="XMLID_503_" class="st59" d="M134.1,309.9c-10.5-7-21.5-20.5-19-46.7c1.1-12,5.1-26.6,13.1-44.4
			c16.6-43.8,41.3-74.6,76.6-88.5C229.9,158.9,287.3,245.3,134.1,309.9z"/>
	</g>
</g>
</svg>
